<svg width="14" height="14" viewBox="0 0 14 14" fill="none" xmlns="http://www.w3.org/2000/svg">
<path d="M7 14C6.08075 14 5.1705 13.8189 4.32122 13.4672C3.47194 13.1154 2.70026 12.5998 2.05025 11.9497C1.40024 11.2997 0.884626 10.5281 0.532843 9.67878C0.18106 8.8295 0 7.91925 0 7C0 6.08075 0.18106 5.1705 0.532843 4.32122C0.884626 3.47194 1.40024 2.70026 2.05025 2.05025C2.70026 1.40024 3.47194 0.884626 4.32122 0.532843C5.1705 0.181061 6.08075 -1.36979e-08 7 0C8.85651 2.76642e-08 10.637 0.737498 11.9497 2.05025C13.2625 3.36301 14 5.14348 14 7C14 8.85651 13.2625 10.637 11.9497 11.9497C10.637 13.2625 8.85651 14 7 14ZM7.77778 7V3.11111H6.22222V8.55555H10.1111V7H7.77778Z" fill="#C9EEFA" fill-opacity="0.9"/>
</svg>
