<svg width="14" height="14" viewBox="0 0 14 14" fill="none" xmlns="http://www.w3.org/2000/svg">
<path d="M6.99992 0.333008C8.81125 0.333008 9.03725 0.339675 9.74792 0.373008C10.4579 0.406342 10.9413 0.517676 11.3666 0.683012C11.8066 0.852347 12.1773 1.08168 12.5479 1.45169C12.8869 1.78495 13.1492 2.18809 13.3166 2.63303C13.4813 3.0577 13.5933 3.54171 13.6266 4.25172C13.6579 4.96239 13.6666 5.18839 13.6666 6.99974C13.6666 8.8111 13.6599 9.0371 13.6266 9.74777C13.5933 10.4578 13.4813 10.9411 13.3166 11.3665C13.1497 11.8116 12.8873 12.2149 12.5479 12.5478C12.2146 12.8867 11.8115 13.149 11.3666 13.3165C10.9419 13.4811 10.4579 13.5931 9.74792 13.6265C9.03725 13.6578 8.81125 13.6665 6.99992 13.6665C5.18859 13.6665 4.96259 13.6598 4.25192 13.6265C3.54192 13.5931 3.05859 13.4811 2.63325 13.3165C2.18814 13.1495 1.78494 12.8871 1.45192 12.5478C1.11286 12.2146 0.85054 11.8114 0.683252 11.3665C0.517919 10.9418 0.406585 10.4578 0.373252 9.74777C0.341919 9.0371 0.333252 8.8111 0.333252 6.99974C0.333252 5.18839 0.339919 4.96239 0.373252 4.25172C0.406585 3.54104 0.517919 3.05837 0.683252 2.63303C0.850076 2.18781 1.11245 1.78457 1.45192 1.45169C1.78503 1.1125 2.1882 0.850166 2.63325 0.683012C3.05859 0.517676 3.54125 0.406342 4.25192 0.373008C4.96259 0.341675 5.18859 0.333008 6.99992 0.333008ZM6.99992 3.66638C6.11586 3.66638 5.26802 4.01757 4.6429 4.6427C4.01777 5.26782 3.66659 6.11568 3.66659 6.99974C3.66659 7.88381 4.01777 8.73166 4.6429 9.35679C5.26802 9.98192 6.11586 10.3331 6.99992 10.3331C7.88397 10.3331 8.73182 9.98192 9.35694 9.35679C9.98206 8.73166 10.3333 7.88381 10.3333 6.99974C10.3333 6.11568 9.98206 5.26782 9.35694 4.6427C8.73182 4.01757 7.88397 3.66638 6.99992 3.66638ZM11.3333 3.49971C11.3333 3.27869 11.2455 3.06673 11.0892 2.91045C10.9329 2.75416 10.7209 2.66637 10.4999 2.66637C10.2789 2.66637 10.0669 2.75416 9.91066 2.91045C9.75438 3.06673 9.66659 3.27869 9.66659 3.49971C9.66659 3.72072 9.75438 3.93269 9.91066 4.08897C10.0669 4.24525 10.2789 4.33305 10.4999 4.33305C10.7209 4.33305 10.9329 4.24525 11.0892 4.08897C11.2455 3.93269 11.3333 3.72072 11.3333 3.49971ZM6.99992 4.99972C7.53035 4.99972 8.03906 5.21044 8.41413 5.58552C8.78921 5.96059 8.99992 6.46931 8.99992 6.99974C8.99992 7.53018 8.78921 8.0389 8.41413 8.41397C8.03906 8.78905 7.53035 8.99976 6.99992 8.99976C6.46949 8.99976 5.96078 8.78905 5.5857 8.41397C5.21063 8.0389 4.99992 7.53018 4.99992 6.99974C4.99992 6.46931 5.21063 5.96059 5.5857 5.58552C5.96078 5.21044 6.46949 4.99972 6.99992 4.99972Z" fill="white"/>
</svg>
