<svg width="15" height="12" viewBox="0 0 15 12" fill="none" xmlns="http://www.w3.org/2000/svg">
<path d="M1.33333 1.66667V0.662C1.33455 0.486919 1.4046 0.319345 1.52834 0.195478C1.65208 0.071612 1.81959 0.00139643 1.99467 0H14.0053C14.3707 0 14.6667 0.296667 14.6667 0.662V11.338C14.6654 11.5131 14.5954 11.6807 14.4717 11.8045C14.3479 11.9284 14.1804 11.9986 14.0053 12H1.99467C1.81921 11.9998 1.651 11.93 1.52699 11.8059C1.40299 11.6817 1.33333 11.5135 1.33333 11.338V10.6667H13.3333V2.86667L8 7.66667L1.33333 1.66667ZM0 4.66667H3.33333V6H0V4.66667ZM0 8H5.33333V9.33333H0V8Z" fill="#C9EEFA" fill-opacity="0.9"/>
</svg>
