<svg width="14" height="12" viewBox="0 0 14 12" fill="none" xmlns="http://www.w3.org/2000/svg">
<path d="M13.3619 2.33184C13.6666 3.51984 13.6666 5.99984 13.6666 5.99984C13.6666 5.99984 13.6666 8.47984 13.3619 9.66784C13.1926 10.3245 12.6973 10.8412 12.0699 11.0158C10.9306 11.3332 6.99992 11.3332 6.99992 11.3332C6.99992 11.3332 3.07125 11.3332 1.92992 11.0158C1.29992 10.8385 0.805252 10.3225 0.637919 9.66784C0.333252 8.47984 0.333252 5.99984 0.333252 5.99984C0.333252 5.99984 0.333252 3.51984 0.637919 2.33184C0.807252 1.67517 1.30259 1.1585 1.92992 0.983837C3.07125 0.666504 6.99992 0.666504 6.99992 0.666504C6.99992 0.666504 10.9306 0.666504 12.0699 0.983837C12.6999 1.16117 13.1946 1.67717 13.3619 2.33184ZM5.66658 8.33317L9.66658 5.99984L5.66658 3.6665V8.33317Z" fill="white"/>
</svg>
